<svg xmlns="http://www.w3.org/2000/svg" width="67.41679" height="40" viewBox="0 0 67.41679 40"><defs><style>.a{fill:#5c5c5f;}</style></defs><title>BHLDN &amp;amp; Terrain Logos</title><polygon class="a" points="3.765 17.445 2.093 17.445 1.634 18.031 3.391 18.031 3.765 17.445"/><path class="a" d="M6.28529,24.59063a15.44559,15.44559,0,0,1-1.53637.9254c-.78277.42369-2.47028.86016-2.86408.52415-.29787-.25415-.09606-.92115.27294-1.64569a15.36689,15.36689,0,0,1,.8273-1.4043l3.13913-4.95908H9.13649l.40687-.57954L6.489,17.44549,8.967,13.5,6.27639,14.50121,1.5869,21.73794A10.06106,10.06106,0,0,0,.93942,22.996c-1.172,3.12493.52591,3.48709.93562,3.48709a6.68476,6.68476,0,0,0,2.96809-.68735,13.73108,13.73108,0,0,0,2.89276-1.98268l-.01621-.39284S6.76231,24.26424,6.28529,24.59063Z"/><path class="a" d="M24.67252,17.75745a.87126.87126,0,0,0-.034.40268c.09519.60864.8122.93924,1.76947.82348.85148-.103,1.3511-.688,1.2559-1.2967-.08382-.536-.70061-.87287-1.39825-.88059l-.00012-.00032a3.135,3.135,0,0,0-2.38811,1.06287,2.14107,2.14107,0,0,0-.19157.21488c-.87543,1.2516-1.82038,2.64607-1.82038,2.64607l-.55072,1.32157.14294.02812s1.55444-2.32043,2.0123-2.9129A11.01507,11.01507,0,0,1,24.67252,17.75745Z"/><path class="a" d="M23.101,17.032s.06119-.08461-.04-.03612a5.951,5.951,0,0,1-1.3591.24959c-.20075.01432-1.644.01409-1.644.01409l-.10145.50045,1.37133.0036L20.277,19.25075s-2.42214,3.53526-2.716,3.985-1.97485,3.1034-1.97485,3.1034h2.16358s3.30075-5.0745,3.48751-5.36285a11.2365,11.2365,0,0,0,.64943-1.11215C22.08221,19.4719,23.101,17.032,23.101,17.032Z"/><path class="a" d="M36.373,17.7045c-.08383-.536-.70062-.87288-1.39826-.8806l-.00012-.00032a3.13494,3.13494,0,0,0-2.3881,1.06288,2.13872,2.13872,0,0,0-.19158.21487c-.87543,1.2516-1.82038,2.64608-1.82038,2.64608L30.0238,22.069l.14293.0281s1.55445-2.32042,2.0123-2.9129a11.018,11.018,0,0,1,1.2025-1.40916.87139.87139,0,0,0-.03395.40268c.09519.60864.81219.93924,1.76947.82348C35.96851,18.89822,36.46814,18.31316,36.373,17.7045Z"/><path class="a" d="M30.68473,19.86388c.19554-.39221,1.11671-2.8082,1.11671-2.8082s.01476-.09218-.0864-.0437a5.57624,5.57624,0,0,1-1.3219.23329c-.20075.01431-1.644.01409-1.644.01409l-.10145.50045,1.47818.0036-1.05078,1.48712s-2.42214,3.53525-2.716,3.98495-1.97486,3.1034-1.97486,3.1034h2.16358s3.30075-5.0745,3.48751-5.36285A11.24067,11.24067,0,0,0,30.68473,19.86388Z"/><path class="a" d="M58.72834,16.97095a8.204,8.204,0,0,1-1.21065.23441c-.51038.07555-1.92958.06245-1.92958.06245l-.10144.50045,1.07639-.0061c-.01187.03562-2.38058,3.82909-2.38058,3.82909l-2.998,4.74786h2.36692s1.83318-3.07191,2.10472-3.53879,1.8583-3.48782,1.91138-3.59067,1.1427-2.18841,1.1427-2.18841S58.75948,16.95736,58.72834,16.97095Z"/><path class="a" d="M53.63805,15.35407c.52316-.40214.75742-1.172.46968-1.54629s-.91074-.32-1.5222.20836a1.10368,1.10368,0,0,0-.31606,1.49127C52.54772,15.81231,53.11487,15.75621,53.63805,15.35407Z"/><path class="a" d="M52.74584,22.647s-1.43074,1.47921-2.2678,2.15-2.00065,1.53165-2.56462,1.31793-.1406-1.15746-.02214-1.436a57.8139,57.8139,0,0,1,3.40378-5.42588c1.05167-1.58146,1.45078-2.1893,1.45078-2.1893l-.00861-.0679s-1.04141.2218-1.2804.2441-2.123.05331-2.123.05331l-.10115.50843h.92427s-1.82363,2.42805-3.22386,4.60777v.01286a3.724,3.724,0,0,0-.55753,2.11345,1.68765,1.68765,0,0,0,1.627,1.8542c.76434-.05091,1.8233-.3294,4.48013-2.99517Z"/><path class="a" d="M41.94288,24.34491s2.09386-3.75056,2.49494-4.45544,1.55339-2.46936,1.55339-2.46936a10.73051,10.73051,0,0,0-1.51072,0c-.14471.06549-1.31426,1.44881-1.48193,1.64765a3.04528,3.04528,0,0,0-.58021-1.1972,1.66828,1.66828,0,0,0-1.63716-.62244,5.96338,5.96338,0,0,0-4.22657,2.63313c-1.18823,1.50223-2.11435,4.13809-1.50208,5.43937s1.4893,1.36129,2.72376.95887a7.664,7.664,0,0,0,2.60521-2.05188c-.15719.99311-.021,2.069,1.14612,2.2494,1.84428.28505,4.03882-2.17475,4.03882-2.17475l.41558-1.04342c-2.341,2.46308-3.62528,2.94221-4.35548,2.88392s-.26167-.79888-.13356-1.05989S41.94288,24.34491,41.94288,24.34491Zm-1.069-1.71378a5.37992,5.37992,0,0,0-.29372.7582,9.695,9.695,0,0,1-2.02382,2.04878c-.51295.40121-1.6138,1.09242-2.26487.40879s.883-3.49631,1.48481-4.55734,1.52606-2.78237,2.36789-3.34277c1.20369-.80129,1.82965-.339,2.21844.48158a2.71545,2.71545,0,0,1,.24057,1.18706C42.03318,20.49209,41.16145,22.05481,40.8739,22.63113Z"/><path class="a" d="M66.685,20.01212s-2.29747,2.86739-3.25029,3.77569c-.95079.90637-2.9532,2.91723-3.8024,2.27076-.659-.50165,1.19183-2.82528,1.4887-3.23263a18.61723,18.61723,0,0,0,1.6203-2.45231c.16192-.48416.64706-1.8216-.336-2.67218s-2.6937.10846-2.71.11754a7.20472,7.20472,0,0,0-1.56949,1.28167l-.17031.65279A9.47,9.47,0,0,1,60.31464,17.887c.92054-.34155,1.4676-.36434,1.37918.24557-.1262.87031-.76255,1.54881-2.55853,4.04864-1.17983,1.64221-.93966,3.14417-.507,3.691a1.53942,1.53942,0,0,0,.78716.53412c.72142.20135,1.84941.07277,4.186-2.35388a45.2989,45.2989,0,0,0,3.36595-4.0186Z"/><path class="a" d="M17.53786,18.6085a1.76216,1.76216,0,0,0-1.7485-1.30669l-.05965.27971a.54282.54282,0,0,1,.528.608,3.211,3.211,0,0,1-.54479,1.33536,6.753,6.753,0,0,1-1.59518,1.714,4.54789,4.54789,0,0,1-2.27395.49254l-.17.2797a10.63948,10.63948,0,0,0,3.84377-.52568C17.03116,20.84324,17.76555,19.49642,17.53786,18.6085Z"/><path class="a" d="M10.231,25.43087c-.71509-1.12932.34016-2.942.61384-3.44726a11.73375,11.73375,0,0,1,1.76241-2.48409c1.56876-1.736,2.46934-1.83287,2.46934-1.83287l.05937-.33948a7.31356,7.31356,0,0,0-3.266,1.04437,7.1529,7.1529,0,0,0-2.84417,3.063,3.55553,3.55553,0,0,0,.238,4.0135,2.847,2.847,0,0,0,2.19273,1.01524,7.93916,7.93916,0,0,0,1.37408-.156,12.39086,12.39086,0,0,0,2.43271-.89324l.24584-.51759a10.54776,10.54776,0,0,1-2.42664,1.05193C12.68406,26.03105,10.94613,26.5602,10.231,25.43087Z"/></svg>