<svg xmlns="http://www.w3.org/2000/svg" xmlns:xlink="http://www.w3.org/1999/xlink" width="68" height="40" viewBox="0 0 68 40"><defs><style>.a{fill:#fff;}.a,.b{fill-rule:evenodd;}.b{fill:#5c5c5f;}.c{mask:url(#a);}</style><mask id="a" x="56.04115" y="10.2526" width="11.51264" height="11.27999" maskUnits="userSpaceOnUse"><polygon class="a" points="56.041 10.253 67.554 10.253 67.554 21.533 56.041 21.533 56.041 10.253"/></mask></defs><title>BHLDN &amp;amp; Terrain Logos</title><path class="b" d="M26.84835,10.65739a6.93329,6.93329,0,0,1,.98041-.201c.13375-.031.10412-.20084.02954-.20084a17.42241,17.42241,0,0,1-1.82664.07753,16.46062,16.46062,0,0,1-1.78307-.07753c-.07484,0-.10429.16981.01447.20084a6.02188,6.02188,0,0,1,.95121.201c.11885.06143.19343.52356.20747,4.24133,0,.21568-.014.36976-.11816.4319a10.53983,10.53983,0,0,1-2.74892.10811,10.52005,10.52005,0,0,1-2.74729-.10811c-.10421-.06214-.1198-.21622-.1198-.4319,0-3.71777.08948-4.1799.20833-4.24133a6.04337,6.04337,0,0,1,.951-.201c.11893-.031.08939-.20084.01481-.20084a16.46062,16.46062,0,0,1-1.78247.07753,16.907,16.907,0,0,1-1.81269-.07753c-.08836,0-.11885.16981.01473.20084a6.96711,6.96711,0,0,1,.98067.201c.11893.07708.20824.47778.20824,5.12025,0,4.62674-.08931,5.02877-.20824,5.10541a5.1949,5.1949,0,0,1-.98067.19994c-.13358.03085-.10309.20093-.01473.20093a17.97641,17.97641,0,0,1,1.81269-.06161,17.48593,17.48593,0,0,1,1.78247.06161c.07458,0,.10412-.17008-.01481-.20093a4.60037,4.60037,0,0,1-.951-.19994c-.11885-.06206-.19274-.54029-.20833-4.566,0-.23134.01559-.385.1198-.43128a10.49878,10.49878,0,0,1,2.74729-.10811,10.51851,10.51851,0,0,1,2.74892.10811c.10412.04632.11816.19994.11816.43128-.014,4.02573-.08862,4.504-.20747,4.566a4.58818,4.58818,0,0,1-.95121.19994c-.11876.03085-.08931.20093-.01447.20093a17.48747,17.48747,0,0,1,1.78307-.06161c.78715,0,1.41016.0152,1.82664.06161.07458,0,.10421-.17008-.02954-.20093a5.17536,5.17536,0,0,1-.98041-.19994c-.11885-.07664-.20833-.47867-.20833-5.10541,0-4.64247.08948-5.04317.20833-5.12025"/><path class="b" d="M39.72467,18.38392a5.687,5.687,0,0,1-.98067,2.06715c-.37119.29321-.83125.432-2.53974.432a5.37549,5.37549,0,0,1-1.72347-.18519c-.11876-.0777-.19239-.27774-.19239-4.92021,0-4.62745.07363-5.04317.19239-5.105a4.88182,4.88182,0,0,1,.95122-.20084c.11773-.03032.104-.20057.01464-.20057-.37119.0312-.951.06179-1.78212.06179a18,18,0,0,1-1.81261-.06179c-.07484,0-.10447.17025.01447.20057a4.768,4.768,0,0,1,.98067.20084c.13332.06188.20824.4776.20824,5.105,0,4.64247-.07492,5.04335-.20824,5.1207a6.05821,6.05821,0,0,1-.98067.20048c-.11894.03112-.08931.20057-.01447.20057.84658-.07708,2.3029-.07708,3.95136-.07708,1.66456,0,2.89654.031,3.74329.07708.10447-.06188.32709-2.59133.401-2.86881.03058-.0777-.20824-.09273-.22288-.04668"/><path class="b" d="M48.15973,20.91408c-1.58955,0-1.81244-.10766-2.08-.35571-.23769-.21569-.43026-.92488-.43026-4.78072,0-4.64248.08828-4.87452.20738-4.95143a4.42939,4.42939,0,0,1,1.58955-.2c2.88155,0,4.70941,1.7734,4.70941,5.19742,0,3.17758-1.5899,5.09047-3.99606,5.09047m-.34216-10.65854c-.41545,0-1.44013.07744-2.24287.07744-.78716,0-1.94645-.03058-2.36164-.07744-.074,0-.10455.16981.02928.20084a6.99,6.99,0,0,1,.98136.201c.11773.07708.19274.47777.19274,5.12025,0,4.62673-.075,5.02877-.19274,5.10541a5.21658,5.21658,0,0,1-.98136.19994c-.13383.03076-.10326.20093-.02928.20093.41519-.04641,1.679-.06161,2.46576-.06161.80188,0,1.97581.06161,2.34734.06161a5.44563,5.44563,0,0,0,5.5254-5.41346c0-3.05418-1.81234-5.61493-5.734-5.61493"/><g class="c"><path class="b" d="M67.48283,10.25551a13.02,13.02,0,0,1-1.61969.07753,15.62454,15.62454,0,0,1-1.752-.07753c-.08948,0-.10481.16981.0149.20084a7.6115,7.6115,0,0,1,1.08376.24707c.11859.0769.32631.40025.29763,5.0742-.01584,1.38791-.0453,2.19028-.06011,3.1309,0,.06179-.07363.06179-.13271,0-1.73855-2.06715-5.63074-6.86369-6.95314-8.591a.16928.16928,0,0,0-.14856-.062,7.44141,7.44141,0,0,1-.9352.07753,8.27007,8.27007,0,0,1-1.17341-.03067c-.07467,0-.10378.1851.03.19986a1.74487,1.74487,0,0,1,1.08453.57131c.28179.324.48918.95627.48918,4.70408,0,4.59607-.08948,4.82749-.47419,5.05873a6.58826,6.58826,0,0,1-1.0407.24662c-.11893.03085-.08879.20093-.015.20093a14.226,14.226,0,0,1,1.634-.06152,12.933,12.933,0,0,1,1.56027.06152c.07355,0,.08965-.17008-.03023-.20093a5.38189,5.38189,0,0,1-.93563-.24662c-.11893-.07663-.26741-.41625-.25259-5.05873.01515-1.44978.04521-2.42143.059-3.34685,0-.077.07467-.06161.11893-.01556,1.61935,1.91263,4.97673,5.98424,7.38375,9.06917.04427.07682.34113.06215.327-.04631-.07466-1.09532-.11971-2.2206-.09025-5.66045.03074-4.62745.07467-4.91995.34207-5.0742a9.9974,9.9974,0,0,1,1.17393-.24707c.13358-.031.08828-.20084.01447-.20084"/></g><path class="b" d="M15.76092,15.35177a.23251.23251,0,0,1-.08208.00572,1.28013,1.28013,0,0,1-.29583.07834c-.06261.016-.23856.07663-.26732.08522a2.8332,2.8332,0,0,0-.29221.09666.56642.56642,0,0,1-.05788.03085.23587.23587,0,0,1-.03229.00358.20648.20648,0,0,0-.08388.00724c-.01464.00554-.02412.023-.04048.03174-.04616.01986-.10231.02325-.14.07109-.06562.00108-.27653.11241-.34939.12063-.05348.00662-.08948.07646-.15106.0254.02024-.05616.08009-.07029.10515-.12117.152-.08593.33907-.13493.48832-.22444a.71153.71153,0,0,0,.0875-.03014.92751.92751,0,0,0,.2333-.06581c.03307.01037.749-.15881.773-.16329.03049-.00518.06545.01485.10042.012.03316-.00286.08293-.02772.08664.03639a.06242.06242,0,0,1-.0819,0Zm-1.90407-.05566a.20748.20748,0,0,1-.00371-.08833.227.227,0,0,1,.15778.04094c-.014.05574-.11342.02991-.15407.04739Zm-.13177-.01915a.28686.28686,0,0,0-.12255.00693,3.15269,3.15269,0,0,1-.44973-.01349.49866.49866,0,0,1-.233-.006c.01929-.02183.00181-.05444.00543-.06981a.55847.55847,0,0,0,.1806-.006c.10963-.00993.57512.0149.59079.006.01473.00488.03307.00638.04057.01931.01636.02155-.01757.03279-.01206.06306Zm-.894-.007a1.56685,1.56685,0,0,0-.19627-.0034c-.0515-.00125-.11325.01395-.163.01288-.03892-.00089-1.54735-.0152-1.66077-.00662,0-.01287-.85984.00573-.92245.01306-.0304.00322-.13642.00715-.17156.005H9.71257c-.14735-.01073-.294-.01288-.42191-.01145a3.22387,3.22387,0,0,1-.44241.01359c-.05072.00107-.2091-.01538-.23778-.00966a.46342.46342,0,0,1-.141.00251s-.14856-.00465-.1632,0c-.1899.01752-.36025.00322-.54464.0152-.03686.002-.07182.004-.11066.00841-.04608.01439-.22022-.00644-.2718,0-.01284.0016-.081-.00322-.1595-.00984V15.177a.54107.54107,0,0,0,.14856.00483c.05245-.01.20359-.00375.222-.00608l.02756-.00107c.18439-.00429.92719.03952,1.00642.01949.07837.00716.929-.03979,1.05344,0,.06262-.00518.14925-.00769.22943-.00858.11523-.00233.21918-.00179.22668-.00376a6.7515,6.7515,0,0,0,.74831-.02387c.10136.0135.4958.02387.4958.02387a.72337.72337,0,0,0,.23959,0,1.04406,1.04406,0,0,0,.29859,0,1.46622,1.46622,0,0,0,.4617.03076,3.081,3.081,0,0,1,.45713-.00161c.012-.00787.0267.025-.00379.05893Zm-1.28838,3.1757a2.31284,2.31284,0,0,1-2.43647,2.46847c-1.05526,0-1.30777-.06179-1.58973-.30868-.23761-.21622-.29686-.97237-.29686-4.76606v-.3609c.12453.00394.26457-.02253.401-.01645.05529.0025.2774,0,.3382,0,.02317,0,.31512.00036.48117.00036a2.822,2.822,0,0,1,3.10271,2.98326ZM7.21969,14.96029c0-3.857.08948-4.05713.20729-4.13483.179-.10794.179-.20013.96595-.20013A2.11494,2.11494,0,0,1,10.814,12.90852,2.17481,2.17481,0,0,1,8.74034,15.0979a.74123.74123,0,0,1-.118.00161c-.01284.00421-.12626.00448-.17965.00626-.15942.00331-.33726-.04184-.48384-.03111a.56275.56275,0,0,1-.30315.02485c-.10041.01127-.19179-.01573-.25535.02415a.68745.68745,0,0,0-.18068-.00769Zm7.20212.265c.08483.00912.46092.024.57779.01467-.00164.04587.002-.01118-.03127.02995-.13908.01628-.47926.05875-.609.07038-.02136-.04624-.02317-.08791.06253-.115Zm-8.43694.028c-.43784-.00429-1.17875-.00286-1.27262-.0025a5.17451,5.17451,0,0,1-.588-.01288c-.05452.00062-.13013-.01341-.16036-.00823a1.07712,1.07712,0,0,1-.24519-.00957s-.15476-.00626-.17233-.003c-.2377.02111-.44413-.01073-.68751.01977a1.27013,1.27013,0,0,1-.17595,0c-.05159.00643-.37687-.00716-.44336-.00367-.03221.00179-.35843.02727-.39263.02531-.11686-.00734-.4275.00912-.4275.00912s.01662-.1192.06631-.11893c.036.00062.18163.00831.22116.003.06261-.00716.68656-.04731.81661-.03729a.67606.67606,0,0,0,.17035.00876c.05632-.01091.11342.019.17327.01565.02033-.00188.04143-.01905.05995-.0194.12806-.01029.99806.05392,1.08668.03192.08285.0093.97482-.03192,1.10486.01252.15941-.01252.46532-.00465.479-.00939.06011-.00349.22512,0,.3872.00223Zm10.57319-.03944a.35642.35642,0,0,0-.16027-.03773c-.214-.02236-.73549-.14772-.76227-.15381-.08388-.00786-.91237-.26477-.93821-.26325-.03867-.015-.81006-.29384-.81006-.29384s-.33269-.222-.35009-.23822c-.03505-.03219-.177.00322-.09318.15041.11058.14441.11609.196.26921.389.034.05768.18982.29536.1446.32183-.18249-.02218-.30866.01752-.48839.00125-.00922.00376-.07553.00626-.09491.0084-.06554.014-.87646.00787-.87646.00787l-.34285-.01251s-.95088-.01753-1.0165-.0186c-.02291.02682-.09758.01162-.1105.01359-.08121-.00447-.41011.03809-.45438.02969-.024-.00573-.13908-.01217-.26628-.01717a2.46346,2.46346,0,0,0,2.00336-2.254c0-1.589-1.50024-2.59178-3.5359-2.59178-.41571,0-.74289.07717-1.53.07717-.80162,0-1.94635-.03022-2.36181-.07717-.07475,0-.10429.17044.01465.20039a6.75075,6.75075,0,0,1,.99531.2012c.11152.07189.1843.43244.1917,4.34255v.08952c-.03126-.00233-.058-.00483-.07458-.00752-.07-.01108-.212.00126-.32072-.0118-.10239-.01234-.833-.04158-1.02752-.04444l-.06915-.01279c-.0056-.00867-.4102-.34588-.4102-.34588l-.06451-.03979s-.31787-.2764-.45041-.3677l-.01585.00518a.70836.70836,0,0,0-.21479-.02476A1.28022,1.28022,0,0,0,3.61,14.3837a1.04636,1.04636,0,0,0,.23227.18331l.36955.315s.05167.02289.04883.06269a.07189.07189,0,0,0-.06451.00187l-.424-.33988s-.4331-.32523-.515-.36547l-.036.00143a.90984.90984,0,0,1-.16036-.01475l-.001.00143.00741.00715.01016.00322a2.339,2.339,0,0,1,.57133.37378c.06727.043.39815.31.41382.32371a.36824.36824,0,0,1-.093.00751c.00086-.03515-.1899-.17956-.1899-.19047a.69224.69224,0,0,1-.25992-.1826c-.0192.005-.48831-.31932-.5529-.35652-.01929-.00331-.0267.00367-.06812.0085a.12536.12536,0,0,0,.0838.06679,1.59041,1.59041,0,0,0,.40081.27587c.06364.03523.48667.3956.48667.3956l-.12531-.00769-.51053-.38255a1.17348,1.17348,0,0,0-.32261-.2274.88831.88831,0,0,0-.21108-.14244l-.06546-.00215a2.10219,2.10219,0,0,0,.32176.23849.35966.35966,0,0,0,.11609.10131c.02222-.01833.21573.18644.23968.18081.01644.07011.30211.20218.28463.25163a.54155.54155,0,0,0-.14279-.00572c-.01473-.03184-.01094-.012-.03213-.03014a3.66882,3.66882,0,0,0-.36972-.34364c-.02678-.02075-.07845-.06081-.08853-.07154a1.57032,1.57032,0,0,0-.256-.20629,1.71333,1.71333,0,0,0-.1688-.10776c-.03307.00608-.06821-.012-.08578,0a.73271.73271,0,0,0,.14933.11384l.19455.16078.11334.0963a.56736.56736,0,0,0,.19532.17652c.02033-.00233.06727.06984.09681.07395.01016.0321.15484.13261.10128.14155a.50945.50945,0,0,1-.12161-.00643c-.00181-.04981-.23864-.19136-.29772-.28284l-.01008-.01a2.51178,2.51178,0,0,0-.19627-.21827c-.02119-.01905-.106-.09211-.12445-.10794-.071-.0667-.17784-.09764-.21177-.19547a.29381.29381,0,0,0-.143.02083c.03789.09667.16492.09721.2203.17464.00732-.0236.24149.23581.36128.29643l.11136.1184c.06924.07788.19911.16981.19369.2096-.05435-.00975-.0193.0186-.06735.00107a2.35184,2.35184,0,0,0-.541-.464c-.06442-.09756-.17956-.13959-.25242-.2291a.14583.14583,0,0,1-.1235-.08808.899.899,0,0,0-.1272-.00661.04028.04028,0,0,0,.01025.03773c.03591.03264.06717.05517.09034.077l.00086-.00143a1.12886,1.12886,0,0,1,.25173.18188l.00069.00072a.3619.3619,0,0,1,.02963.0304l.00172.00125c.12712.11974.49313.402.57788.466a.31836.31836,0,0,1-.1061.00608,6.81887,6.81887,0,0,1-.53258-.47581l-.00086-.00036a.29677.29677,0,0,0-.0987-.06724c-.00181-.01127-.09577-.07-.13-.11089A1.837,1.837,0,0,0,1.859,14.2l.001-.00286a.585.585,0,0,0-.08845.02038c.02119.0795.40185.26067.41468.30082a2.77234,2.77234,0,0,1,.35008.29652.4839.4839,0,0,0,.10972.14844c-.02489-.01056-.01378.01609-.02583.01931-.07915-.00751-.19076-.14745-.20084-.18045a.47123.47123,0,0,1-.117-.1074l-.42122-.31735A1.07655,1.07655,0,0,1,1.61384,14.19a.27607.27607,0,0,0-.11971.00716c-.0037.017.05615.04694.05064.0667a4.78229,4.78229,0,0,1,.59442.3897.43746.43746,0,0,0,.16854.16132c.04711.08289.14012.12841.17612.20137-.047-.01037-.09861-.07591-.13539-.05293-.01309-.03756-.27473-.24707-.36309-.36377-.02394.00537-.18154-.12814-.18154-.12814s-.16234-.08629-.201-.10668c-.01559-.0084-.08948-.06393-.11609-.08182-.02963-.0177-.06821-.02146-.09689-.04024-.04125-.023-.0745-.07055-.12341-.02513a.1529.1529,0,0,0,.10412.05911.67.67,0,0,0,.20738.14173c.07286.06054.23236.1683.23236.1683l.09757.06688s.30065.22454.31056.36269H2.18526a.09907.09907,0,0,1-.03126-.03684.87714.87714,0,0,0-.19446-.16453c-.01663-.06421-.18887-.15729-.20739-.18564,0,0-.19454-.15139-.32071-.228L1.26,14.27666a.95793.95793,0,0,1-.09034-.07985c-.07191-.002-.13917-.00322-.19455,0-.02385.00089-.07182-.01869-.0763.02683a.63205.63205,0,0,1,.17319.1149s.12083.09112.2017.14933c.03048.04373.12634.0956.1421.12564.09844.04659.43672.35679.45972.362.01033.0304.03875.04194.04435.072-.02308.00519-.05624-.01422-.07742-.01144a.36476.36476,0,0,0-.201-.154.80621.80621,0,0,0-.23219-.1944,1.25023,1.25023,0,0,0-.36309-.28284,2.05089,2.05089,0,0,0-.3171-.208A.82263.82263,0,0,1,.60656,14.21c.01206.01932.02489.04015.03858.06a1.70663,1.70663,0,0,1,.40848.23572c.01188.04542.40271.30913.40718.32943.05452.074.189.09845.21393.19467a.6242.6242,0,0,0-.0968-.02039A5.39014,5.39014,0,0,0,.826,14.41839c-.01378,0-.15209-.12134-.20652-.10059.00568.00232-.012.00947-.00741.01117a2.05128,2.05128,0,0,1,.27749.20183c.13908.11705.43767.34123.43586.3584a.67165.67165,0,0,1,.10963.07949c.02868.04418.034.03756.01292.06117-.023-.01288-.04048,0-.07286.01323a.47027.47027,0,0,0-.03694.303.09475.09475,0,0,0,.026.06116.4297.4297,0,0,0,.24613.00537.55235.55235,0,0,1-.26.209c-.11153.05866-.17509.168-.27171.24268H1.02684a1.51427,1.51427,0,0,1-.47281.28839c-.00457.02235.05718.07627.09783.06742.02377-.006.03962-.03237.06451-.04775a.93621.93621,0,0,0,.12246-.0541c.01473-.0085.0627-.03648.07837-.04686a1.90475,1.90475,0,0,1,.1614-.10721c.15278-.14334.33794-.25315.4865-.40329a1.64774,1.64774,0,0,0,.19351-.12108c-.00542-.03684.02937-.02289.04332-.01958-.01481.017-.00361.022-.01111.04686-.0074-.00787-.06812.03827-.08388.06089-.17224.12743-.30685.27363-.4958.40553l-.08656.06c-.12815.07842-.30607.19172-.317.19923-.04608.03022.21.029.28739.0431.02592-.03336.06933-.03371.08767-.07708.07183-.03595.87267-.6441.97869-.75293h.08853c-.06829.05017-.13926.10668-.13555.12841-.093.06277-.27465.24645-.29135.25539-.01654.00286-.34552.23383-.3879.26227a1.12058,1.12058,0,0,1-.19446.10686c-.01188.02647-.04771.02736-.058.05419.09956.04659.0304.067.11153.01108a4.89836,4.89836,0,0,0,.4257-.25324l.41562-.34033s.11153-.10015.16028-.15694c.00835.01091.05632-.05293.06752-.06769h.06157l.01662.00143-.08112.08-.3134.29948a4.46049,4.46049,0,0,0-.3593.278c-.01206-.012-.23589.07931-.23305.14182.02489.01207.05245-.00939.09017.00635a1.66565,1.66565,0,0,0,.188-.10758c.08758-.05007.14554-.12009.233-.16766.0987-.05482.1955-.15577.29781-.2156.01016-.02056.246-.27658.246-.27658a.242.242,0,0,1,.1105-.03916c.00275.00948.0093.017.01283.02709a1.65361,1.65361,0,0,0-.16854.20871,4.46949,4.46949,0,0,1-.446.34883c-.04426.06609-.30874.18761-.31693.27462.02016.00661.05986.00715.09491.013l.00922-.012c.01378,0,1.02752-.84646,1.02752-.84646l.00542-.0144h.11351c-.04418.04552-.10507.06662-.13822.12841-.08406.03166-.79172.6365-.95389.76643a.0252.0252,0,0,1,.00921.01288c.13625.00071.14572-.13029.2718-.14066.12264-.12779.29583-.20388.3953-.35545a1.987,1.987,0,0,1,.29687-.22257c.00189-.01646.12806-.09345.13357-.10525.05357-.025.01387-.00715.05434.02414a.2187.2187,0,0,0-.09766.10078c-.012.00116-.48659.41518-.49856.41652-.036.06144-.24794.173-.27.24833a.49136.49136,0,0,1,.08018.0262c.07105-.028.64884-.62282.73445-.63713.024-.07931.165-.13815.18809-.14048.01748-.03085.08569-.06125.09663-.00688a.78688.78688,0,0,1-.22013.19422,5.48571,5.48571,0,0,0-.66641.56407c.02954-.00322.04151.00822.07019.00581.04047.00671.67545-.55307.78328-.62979l.15019-.11563a.43089.43089,0,0,1,.152-.12715l.10972.0084-.03686.0364-.14374.111c-.04237-.02522-.44327.35187-.44327.35187s-.29307.2494-.38626.31611c-.00534.04927.06649.03353.06649.03353a4.56525,4.56525,0,0,1,.37695-.30573c.06727-.07163.3705-.25745.43311-.33605a.604.604,0,0,0,.14279-.10015.42684.42684,0,0,1,.14383-.07663c.00637.01073.03126.0143.057.02968-.0397.04078-.12264.121-.12264.121l-.2588.17366a1.16191,1.16191,0,0,1-.16871.13493c-.023-.00483-.48753.27605-.47729.35179a.93666.93666,0,0,0,.09947-.00421c.072-.05007.27913-.19681.49856-.35384.31883-.22873.552-.41706.61569-.45211a.07549.07549,0,0,1,.10042.01341c-.01671.02486-.21841.18189-.44594.35179-.04341.03183-.08681.06349-.12918.09612-.19714.14567-.38979.2849-.47927.342.02489-.0034.0434-.0034.04426.00259.06193-.00831.10326-.01162.13642-.01323.10783-.08915.62206-.47876.70689-.54109.01843-.06653.29945-.26665.29945-.26021a.42659.42659,0,0,0,.0912.00134l-.48.41a.19426.19426,0,0,0-.11437.08916,1.49735,1.49735,0,0,0-.32623.27452c.013-.00385.12539.01887.17982.013a1.88337,1.88337,0,0,1,.31322-.30859c-.0037-.02074.51708-.41777.52819-.45855a.35165.35165,0,0,0,.04427-.02235c.13633.00474.87258.03022.893.03219.01378.00089.53077-.01082.59157-.00447h.00181v.104h.001v.2037c0,4.62746-.07381,5.02887-.19274,5.105a5.09207,5.09207,0,0,1-.99531.2004c-.11894.03085-.0894.20093-.01465.20093.41546-.04632,1.67826-.06152,2.46611-.06152.787,0,1.36658.06152,1.72347.06152,2.27241,0,3.96625-1.1876,3.96625-3.10014,0-1.195-.848-2.322-2.67994-2.73191l.02773-.00053c.022.00286.01559-.02263.03592-.0195.15381.00278,1.17212-.00375,1.27822-.00626.03669,0,.11695-.00536.11695-.00536a.58359.58359,0,0,1,.19076.024c.20549-.04122,1.06723-.00232,1.25066-.01234.117-.00626.72429-.0017.75-.00742.014.01118.12367.02406.05349.13252-.00164,0-.46722.558-.54645.637,0,.0304,0,.09434.07837.085.0664-.06134.30324-.1167.37506-.1708l.94278-.34418s.62016-.205.62757-.20567c.11713-.0033.95673-.26924.95673-.26924s.24415-.04149.16122-.07521Z"/><path class="b" d="M20.16507,25.8154a.481.481,0,0,0-.38471.2257,21.94919,21.94919,0,0,0-1.34626,3.67261c-.0167.052-.20066.03469-.20893.00858-.43483-1.27621-.71076-2.11838-.90316-2.674-.24243.60779-.56849,1.42394-1.01176,2.66546-.01671.052-.20066.03469-.2091.00858-1.10365-3.25573-1.19563-3.67243-1.34609-3.77661a1.19412,1.19412,0,0,0-.37635-.13028c-.05848-.01726-.05021-.10418-.00835-.09541.184.01734.602.026.75253.026.35964,0,.75253-.00868.93658-.026.03341-.00877.05012.07815-.00845.09541a2.66769,2.66769,0,0,0-.418.07815c-.10033.06081-.117.15631.1421.98113.15889.52964.45162,1.43252.63549,1.92738a.02591.02591,0,0,0,.05021,0c.38462-1.0245.60208-1.54537.76924-2.023-.21737-.63373-.29272-.78136-.36791-.83341a1.21263,1.21263,0,0,0-.36783-.13028c-.05856-.01726-.04185-.10418-.00844-.09541.17561.01734.61044.026.75262.026.34277,0,.719-.00868.89464-.026.0335-.00877.05012.07815,0,.09541a2.40634,2.40634,0,0,0-.40133.07815c-.092.06081-.12548.15631.13375.98113.159.52964.45989,1.42385.63549,1.91871.00835.026.04186.01735.05021,0a12.80316,12.80316,0,0,0,.8278-2.74353c0-.1302-.00844-.18233-.33449-.23446-.05848-.00868-.04177-.10418-.00827-.09541.1756.01734.39289.026.535.026a5.40437,5.40437,0,0,0,.60216-.026c.03333-.00877.05021.08673-.00835.09541"/><path class="b" d="M24.3546,29.61814c-.40977-.01734-.35121-.026-1.1456-.026s-1.45485.00868-1.86462.026c-.07527,0-.06692-.07815-.00844-.09541a2.35343,2.35343,0,0,0,.46833-.09559,6.30648,6.30648,0,0,0,.10033-1.76249,6.36083,6.36083,0,0,0-.10033-1.7624,3.35977,3.35977,0,0,0-.46833-.08683c-.05848-.01734-.06683-.10417.00844-.0955.40977.01744.92813.026,1.72244.026s1.02855-.026,1.17074-.026a7.67527,7.67527,0,0,1,.08354.97237c0,.05213-.10034.05213-.1086.026a1.2044,1.2044,0,0,0-.31779-.57292.96658.96658,0,0,0-.71086-.23446,1.21383,1.21383,0,0,0-.57693.06939,4.55176,4.55176,0,0,0-.10024,1.34578c0,.11285.01662.14764.05856.165.04168.026.04168.03479.418.03479.30944,0,.41821-.03479.50175-.12161a.82005.82005,0,0,0,.14218-.408c.00836-.06081.117-.04346.117-.00876-.0167.20844-.02506.33-.02506.59912,0,.25181.00836.4167.02506.625,0,.03478-.10033.05213-.117-.00867a.7283.7283,0,0,0-.1756-.39936.65851.65851,0,0,0-.46833-.11285c-.35947,0-.37627.00868-.418.026-.04194.01744-.05856.06081-.05856.17366a4.7962,4.7962,0,0,0,.10024,1.45855,1.70436,1.70436,0,0,0,.69406.07815.87.87,0,0,0,.72747-.26048,1.74789,1.74789,0,0,0,.40977-.764c.01662-.0346.12539-.026.1086.026-.03341.13029-.15054,1.16346-.19222,1.18948"/><path class="b" d="M27.98375,25.89355a1.04137,1.04137,0,0,0-.55187.0955,5.41671,5.41671,0,0,0-.10033,1.67566,4.48582,4.48582,0,0,0,.15881,1.6323c.13383.12152.25922.14754.77768.14754.84442,0,1.35461-.63381,1.35461-1.75373,0-1.22426-.65229-1.79727-1.6389-1.79727m.25922,3.72457c-.1756,0-.5436-.026-.91986-.026-.38462,0-.97826.00867-1.17057.026-.03342,0-.05021-.07816.00835-.09541a2.23154,2.23154,0,0,0,.46825-.09551,6.305,6.305,0,0,0,.10041-1.76249,6.35761,6.35761,0,0,0-.10041-1.7624,3.13411,3.13411,0,0,0-.46825-.08691c-.05856-.01726-.04177-.10418-.00835-.09541.19231.01734.73574.026,1.12044.026.37627,0,.68562-.026.88628-.026a1.95222,1.95222,0,0,1,2.1658,1.99686A2.06412,2.06412,0,0,1,28.243,29.61812"/><path class="b" d="M33.61977,25.89355a1.04186,1.04186,0,0,0-.55187.0955,5.41922,5.41922,0,0,0-.10024,1.67566,4.4889,4.4889,0,0,0,.15872,1.6323c.13383.12152.25922.14754.77768.14754.84451,0,1.35461-.63381,1.35461-1.75373,0-1.22426-.6522-1.79727-1.6389-1.79727m.25923,3.72457c-.1756,0-.54352-.026-.91979-.026-.3847,0-.97825.00867-1.17065.026-.03341,0-.05021-.07816.00836-.09541a2.23031,2.23031,0,0,0,.46824-.09551,6.3002,6.3002,0,0,0,.10042-1.76249,6.35278,6.35278,0,0,0-.10042-1.7624,3.13192,3.13192,0,0,0-.46824-.08691c-.05857-.01726-.04177-.10418-.00836-.09541.1924.01734.73583.026,1.12053.026.37627,0,.68562-.026.88628-.026a1.95214,1.95214,0,0,1,2.16571,1.99686A2.06412,2.06412,0,0,1,33.879,29.61812"/><path class="b" d="M38.33611,29.57475c-.37626,0-.72747.00876-.92813.026-.0335,0-.05029-.07806.00818-.09541a2.8493,2.8493,0,0,0,.51863-.09559,6.31352,6.31352,0,0,0,.10024-1.7624,6.1727,6.1727,0,0,0-.10024-1.74506,4.07219,4.07219,0,0,0-.51863-.08691c-.05847-.01726-.04168-.10418-.00818-.09541.20066.01734.55187.026.92813.026s.7273-.00868.92814-.026c.03333-.00877.05013.07815-.00835.09541a4.06857,4.06857,0,0,0-.51845.08691,6.15835,6.15835,0,0,0-.10042,1.74506,6.29882,6.29882,0,0,0,.10042,1.7624,2.84693,2.84693,0,0,0,.51845.09559c.05848.01735.04168.09541.00835.09541-.20084-.01726-.55187-.026-.92814-.026"/><path class="b" d="M45.16767,25.8154a3.11218,3.11218,0,0,0-.49339.11294c-.12531.06939-.16717.29509-.16717,1.73637,0,.79871.00844,1.51068.05013,2.03156,0,.05213-.13375.05213-.15881.026-.56867-.738-1.98176-2.20521-2.65075-3.04738-.02506-.026-.05856-.026-.05856.00877-.00818.26915-.02506.6077-.02506.981a5.31037,5.31037,0,0,0,.11712,1.74506,2.09012,2.09012,0,0,0,.40977.11294c.05848.01725.05012.09541.01662.09541a6.85759,6.85759,0,0,0-.71068-.026c-.3847,0-.54351.00867-.74417.026-.03342,0-.0503-.07816.00826-.09541a2.596,2.596,0,0,0,.46006-.11294c.18388-.11276.22573-.55567.22573-1.74506a3.1366,3.1366,0,0,0-.159-1.48465.83292.83292,0,0,0-.56014-.34732c-.05847-.00858-.05029-.09541-.00835-.09541a2.08869,2.08869,0,0,0,.49331.00868,3.10575,3.10575,0,0,0,.485-.03479c.01662-.00867.05856.01735.06691.03479.64394.81614,2.04023,2.30939,2.44156,2.787.02506.026.06692.026.06692,0,0-.22579.02506-.63381.02506-.86828,0-1.47589-.07519-1.693-.1421-1.73637a2.97606,2.97606,0,0,0-.48495-.11294c-.05857-.01726-.04186-.10418-.00845-.09541.20076.01734.42648.026.80275.026a6.75311,6.75311,0,0,0,.71085-.026c.03341-.00877.05012.07815-.00844.09541"/><path class="b" d="M50.40243,27.986a1.21676,1.21676,0,0,0-.45145.139c-.05029.03461-.10042.1302-.10042.7726,0,.27792.04186.36466.02506.3821a2.84372,2.84372,0,0,1-1.42153.434,2.04283,2.04283,0,0,1-2.20738-2.09236,2.13129,2.13129,0,0,1,2.17406-2.00553,3.00335,3.00335,0,0,1,1.25419.2518,3.63018,3.63018,0,0,1,.15054.92033c.00835.06071-.067.052-.08362.026a1.46866,1.46866,0,0,0-1.363-1.01583c-.82772,0-1.42153.74667-1.42153,1.84056A1.71331,1.71331,0,0,0,48.47089,29.54c.51845,0,.76924-.191.76924-.57292a2.48315,2.48315,0,0,0-.05856-.84217,5.34065,5.34065,0,0,0-.68562-.139c-.05847-.01735-.05012-.10417-.00835-.0955.19239.01735.694.02611,1.07024.02611s.66055-.00876.853-.02611c.04168-.00867.05012.07815-.00844.0955"/><path class="b" d="M52.91124,29.71368a1.78413,1.78413,0,0,1-1.05362-.34731,6.2687,6.2687,0,0,1-.05856-.95493c-.00827-.05213.07536-.05213.08363-.01743.184.77268.5436,1.146,1.17065,1.146.44327,0,.66056-.29518.66056-.74667,0-1.06787-1.75586-.903-1.75586-2.05767a1.18559,1.18559,0,0,1,1.24584-1.11991,1.85089,1.85089,0,0,1,.81937.15622c.07535.03479.05029.52964.06691.79012.00844.06081-.06691.05205-.08354.026-.20066-.547-.47651-.79-.86121-.79-.42639,0-.61888.2257-.61888.6424,0,.98113,1.77274.81615,1.77274,2.13583a1.25949,1.25949,0,0,1-1.388,1.13734"/></svg>